<?xml version="1.0" encoding="utf-8"?>
<!-- Generator: Adobe Illustrator 18.1.1, SVG Export Plug-In . SVG Version: 6.00 Build 0)  -->
<svg version="1.1" xmlns="http://www.w3.org/2000/svg" xmlns:xlink="http://www.w3.org/1999/xlink" x="0px" y="0px"
	 viewBox="0 0 100 100" enable-background="new 0 0 100 100" xml:space="preserve">
<g id="Layer_3">
	<g>
		<defs>
			<circle id="SVGID_1_" cx="50" cy="50" r="50"/>
		</defs>
		<clipPath id="SVGID_2_">
			<use xlink:href="#SVGID_1_"  overflow="visible"/>
		</clipPath>
		<rect clip-path="url(#SVGID_2_)" fill="#909090" width="100" height="100"/>
		<path clip-path="url(#SVGID_2_)" fill="#1A1A1C" d="M5.5,100c0-14.2,29.9-17.9,32.5-25.1c1.7-4.7,1.4-7.4,1.1-10.8
			c-1.7-2.7-3-7.5-3.8-9.5c-0.8-2-1.2,1.8-1.9-1s-2.5-20.1-0.7-24.8c1.4-3.9,2.6-2.5,3.3-3.5c0.7-1.1-1-2.3,3.1-4.7
			c4.1-2.4,24.9-6.5,28.1,9.1c2.1,10.5,0,24.1-0.7,24.8C65.5,55.4,65,52,64.7,54c-0.5,3.2-3,7.4-4.3,9.7c-0.3,2.9-0.4,9.8,3.4,12.7
			c8.1,6.2,30.7,5.6,30.7,23.6L5.5,100z"/>
		<g clip-path="url(#SVGID_2_)">
			<path fill="#909090" d="M48.3,48c-0.2,0-0.4-0.1-0.4-0.3c0-0.6,0-1,0-1.4c0-3.2,2.3-4,4.2-4.9c1.7-0.8,3.1-1.8,3.1-3.9
				c0-2.2-1.8-3.9-3.9-3.9h-1.5c-1.2,0-2.6,0.7-3.4,2c-0.1,0.1-0.2,0.2-0.3,0.2c-0.1,0-0.2,0-0.3-0.1L44.5,35
				c-0.1-0.1-0.2-0.2-0.2-0.3c0-0.1,0.4-0.8,0.8-1.3c1-1.1,2.4-1.9,4.9-1.9h1.5c3.9,0,6.4,2.4,6.4,6c0,4-2.4,4.9-4.3,5.8
				c-1.7,0.8-3,1.5-3,3.6c0,0.3,0,0.6,0,0.8c0,0.2-0.1,0.3-0.4,0.3H48.3z M49.8,55.4c-1,0-1.8-0.8-1.8-1.8s0.8-1.8,1.8-1.8
				c1,0,1.8,0.8,1.8,1.8S50.8,55.4,49.8,55.4z"/>
		</g>
	</g>
</g>
<g id="Layer_2">
</g>
<g id="Layer_2_copy">
	<linearGradient id="SVGID_3_" gradientUnits="userSpaceOnUse" x1="50" y1="100" x2="50" y2="9.094947e-013">
		<stop  offset="0" style="stop-color:#E78324"/>
		<stop  offset="1" style="stop-color:#F3EB3A"/>
	</linearGradient>
	<path fill="url(#SVGID_3_)" d="M50,2c26.5,0,48,21.5,48,48S76.5,98,50,98S2,76.5,2,50S23.5,2,50,2 M50,0C22.4,0,0,22.4,0,50
		s22.4,50,50,50s50-22.4,50-50S77.6,0,50,0L50,0z"/>
</g>
</svg>
